<svg xmlns="http://www.w3.org/2000/svg" viewBox="0 0 256 256"><defs><linearGradient id="background" x2="1" y2="1"><stop stop-color="#ffffff"/><stop offset="1" stop-color="#edf3fa"/></linearGradient></defs><circle cx="128" cy="128" r="122" fill="url(#background)" stroke="#dae4ef" stroke-width="2"/><g transform="translate(50 50)"><svg xmlns="http://www.w3.org/2000/svg" width="156" height="156" fill="#002664" viewBox="0 0 256 256"><path d="M232,168h-8V72a24,24,0,0,0-24-24H56A24,24,0,0,0,32,72v96H24a8,8,0,0,0-8,8v16a24,24,0,0,0,24,24H216a24,24,0,0,0,24-24V176A8,8,0,0,0,232,168ZM48,72a8,8,0,0,1,8-8H200a8,8,0,0,1,8,8v96H48ZM224,192a8,8,0,0,1-8,8H40a8,8,0,0,1-8-8v-8H224ZM152,88a8,8,0,0,1-8,8H112a8,8,0,0,1,0-16h32A8,8,0,0,1,152,88Z"></path></svg></g></svg>