<svg xmlns="http://www.w3.org/2000/svg" width="1200" height="630" viewBox="0 0 1200 630">
<title>España. Tus servicios públicos, más cerca.</title>
<desc>Tarjeta de presentación de espana.chat</desc>
<defs><linearGradient id="background" x2="1" y2="1"><stop stop-color="#002664"/><stop offset="1" stop-color="#000c1f"/></linearGradient></defs>
<rect width="1200" height="630" fill="url(#background)"/>
<g transform="translate(64 56) scale(1.125)"><rect width="64" height="64" rx="16" fill="#002664"/>
<path d="M20 14h24a6 6 0 0 1 6 6v18a6 6 0 0 1-6 6H30l-10 8v-8a6 6 0 0 1-6-6V20a6 6 0 0 1 6-6Z" fill="white"/>
<rect x="22" y="21" width="20" height="4" rx="1" fill="#c82632"/>
<rect x="22" y="25" width="20" height="7" fill="#f2c800"/>
<rect x="22" y="32" width="20" height="4" rx="1" fill="#c82632"/></g>
<path fill="#d9e4f5" transform="translate(155 103) scale(0.03 -0.03)" d="M529 270C529 431 438 528 293 528C139 528 50 418 50 260C50 101 141 -12 295 -12C408 -12 493 49 525 156L441 166C418 101 374 63 298 63C205 63 145 120 142 236L529 236ZM294 453C378 453 431 400 443 302L143 302C152 403 212 453 294 453Z"/><path fill="#d9e4f5" transform="translate(172.37 103) scale(0.03 -0.03)" d="M255 -13C391 -13 470 49 470 150C470 225 426 272 319 296L219 318C158 331 139 354 139 387C139 433 178 455 243 455C316 455 355 426 365 366L456 366C443 477 363 528 246 528C119 528 54 469 54 379C54 306 97 260 197 239L301 217C355 206 382 183 382 142C382 93 343 61 259 61C180 61 137 91 128 163L40 163C52 45 125 -13 255 -13Z"/><path fill="#d9e4f5" transform="translate(187.52 103) scale(0.03 -0.03)" d="M329 527C253 527 190 490 160 433L160 516L80 516L80 -204L172 -204L172 63C205 19 259 -11 325 -11C465 -11 551 110 551 270C551 426 460 527 329 527ZM316 68C230 68 167 142 167 264C167 386 230 448 316 448C405 448 459 388 459 270C459 150 405 68 316 68Z"/><path fill="#d9e4f5" transform="translate(205.55 103) scale(0.03 -0.03)" d="M535 68C501 68 490 79 490 113L490 367C490 480 416 532 288 532C155 532 82 478 73 364L164 364C170 433 207 456 281 456C361 456 397 430 397 376L397 354C397 330 385 318 360 315L228 298C103 282 52 222 52 137C52 42 120 -13 225 -13C313 -13 379 26 412 76C416 25 446 0 501 0L550 0L550 68ZM242 58C182 58 143 88 143 141C143 187 171 219 243 230L397 253L397 181C397 115 325 58 242 58Z"/><path fill="#d9e4f5" transform="translate(222.65 103) scale(0.03 -0.03)" d="M339 529C263 529 201 498 166 443L166 516L80 516L80 0L172 0L172 287C172 410 248 449 319 449C389 449 422 411 422 340L422 0L514 0L514 358C514 467 447 529 339 529Z"/><path fill="#d9e4f5" transform="translate(240.47 103) scale(0.03 -0.03)" d="M535 68C501 68 490 79 490 113L490 367C490 480 416 532 288 532C155 532 82 478 73 364L164 364C170 433 207 456 281 456C361 456 397 430 397 376L397 354C397 330 385 318 360 315L228 298C103 282 52 222 52 137C52 42 120 -13 225 -13C313 -13 379 26 412 76C416 25 446 0 501 0L550 0L550 68ZM242 58C182 58 143 88 143 141C143 187 171 219 243 230L397 253L397 181C397 115 325 58 242 58Z"/><path fill="#d9e4f5" transform="translate(257.57 103) scale(0.03 -0.03)" d="M85 0L198 0L198 101L85 101Z"/><path fill="#d9e4f5" transform="translate(266.06 103) scale(0.03 -0.03)" d="M289 -13C419 -13 494 59 512 180L426 180C412 107 370 64 294 64C196 64 142 136 142 258C142 380 191 452 295 452C367 452 411 417 425 347L512 347C494 466 413 529 294 529C145 529 50 428 50 254C50 80 145 -13 289 -13Z"/><path fill="#d9e4f5" transform="translate(282.77 103) scale(0.03 -0.03)" d="M339 529C267 529 208 501 172 451L172 712L80 712L80 0L172 0L172 287C172 410 248 449 319 449C389 449 422 411 422 340L422 0L514 0L514 358C514 467 447 529 339 529Z"/><path fill="#d9e4f5" transform="translate(300.59 103) scale(0.03 -0.03)" d="M535 68C501 68 490 79 490 113L490 367C490 480 416 532 288 532C155 532 82 478 73 364L164 364C170 433 207 456 281 456C361 456 397 430 397 376L397 354C397 330 385 318 360 315L228 298C103 282 52 222 52 137C52 42 120 -13 225 -13C313 -13 379 26 412 76C416 25 446 0 501 0L550 0L550 68ZM242 58C182 58 143 88 143 141C143 187 171 219 243 230L397 253L397 181C397 115 325 58 242 58Z"/><path fill="#d9e4f5" transform="translate(317.69 103) scale(0.03 -0.03)" d="M209 449L327 445L327 516L209 512L209 674L117 674L117 513L40 516L40 445L117 449L117 115C117 35 152 0 232 0L326 0L326 77L259 77C221 77 209 89 209 127Z"/>
<path fill="#ffffff" transform="translate(64 330) scale(0.184 -0.184)" d="M598 0L654 179L644 179C594 84 541 45 438 45L366 45C317 45 273 45 219 51L219 366L408 366C481 366 514 333 514 263L524 263L524 512L514 512C514 442 481 410 408 410L219 410L219 686L415 686C517 686 554 666 575 573L585 573L579 730L23 730L23 720C90 720 118 691 118 629L118 101C118 39 90 10 23 10L23 0Z"/><path fill="#ffffff" transform="translate(176.704 330) scale(0.184 -0.184)" d="M202 -12C297 -12 365 49 365 138C365 204 332 252 258 287L199 316C133 349 106 370 106 411C106 461 143 485 188 485C256 485 303 432 322 367L331 367L331 491L325 498C319 497 315 496 305 496C281 496 240 517 192 517C99 517 43 450 43 373C43 306 86 264 149 233L211 203C279 170 298 144 298 102C298 48 258 20 210 20C125 20 83 80 57 154L48 154L48 11L54 5C61 6 65 7 74 7C101 7 145 -12 202 -12Z"/><path fill="#ffffff" transform="translate(241.568 330) scale(0.184 -0.184)" d="M249 -180L249 -170C198 -170 177 -149 177 -102L177 8C206 -6 236 -12 265 -12C392 -12 504 105 504 285C504 411 437 516 330 516C265 516 212 468 177 424C177 463 178 497 179 513L173 519L12 449L16 440C24 443 36 447 52 447C85 447 87 424 87 386L87 -102C87 -149 66 -170 14 -170L14 -180ZM274 18C224 18 189 49 177 73L177 401C201 426 235 447 277 447C355 447 417 381 417 240C417 66 328 18 274 18Z"/><path fill="#ffffff" transform="translate(332.192 330) scale(0.184 -0.184)" d="M470 65C459 51 443 35 426 35C402 35 401 55 401 81L401 337C401 453 348 516 221 516C127 516 55 462 55 387C55 364 68 341 100 341C129 341 146 360 146 386C146 401 144 407 144 422C144 470 175 491 221 491C274 491 311 456 311 350L311 312C126 255 36 211 36 108C36 44 79 -12 154 -12C219 -12 271 32 313 80C313 23 333 -12 384 -12C434 -12 462 28 478 60ZM201 54C158 54 129 84 129 137C129 216 197 247 311 289L311 99C276 72 240 54 201 54Z"/><path fill="#ffffff" transform="translate(412.696 330) scale(0.184 -0.184)" d="M334 593C374 593 409 621 424 704L414 708C396 672 382 664 359 664C320 664 281 717 228 717C188 717 153 689 138 605L147 602C165 637 179 646 203 646C242 646 281 593 334 593ZM245 0L245 10C202 10 183 31 183 78L183 405C208 434 248 457 290 457C360 457 386 413 386 334L386 78C386 31 368 10 325 10L325 0L549 0L549 10C497 10 476 31 476 78L476 355C476 454 436 517 344 517C274 517 218 473 183 431C183 465 185 498 186 513L180 519L18 449L22 440C30 443 43 447 58 447C91 447 93 424 93 386L93 78C93 31 73 10 21 10L21 0Z"/><path fill="#ffffff" transform="translate(508.10400000000004 330) scale(0.184 -0.184)" d="M470 65C459 51 443 35 426 35C402 35 401 55 401 81L401 337C401 453 348 516 221 516C127 516 55 462 55 387C55 364 68 341 100 341C129 341 146 360 146 386C146 401 144 407 144 422C144 470 175 491 221 491C274 491 311 456 311 350L311 312C126 255 36 211 36 108C36 44 79 -12 154 -12C219 -12 271 32 313 80C313 23 333 -12 384 -12C434 -12 462 28 478 60ZM201 54C158 54 129 84 129 137C129 216 197 247 311 289L311 99C276 72 240 54 201 54Z"/><path fill="#ef5965" transform="translate(588.6080000000001 330) scale(0.184 -0.184)" d="M103 -12C137 -12 167 18 167 52C167 88 139 116 103 116C68 116 38 89 38 52C38 18 68 -12 103 -12Z"/>
<path fill="#ffffff" transform="translate(70 422) scale(0.042 -0.042)" d="M604 712L35 712L35 631L273 631L273 0L366 0L366 631L604 631Z"/><path fill="#ffffff" transform="translate(92.218 422) scale(0.042 -0.042)" d="M422 516L422 229C422 106 346 67 275 67C205 67 172 105 172 176L172 516L80 516L80 158C80 49 147 -13 255 -13C331 -13 393 18 428 73L428 0L514 0L514 516Z"/><path fill="#ffffff" transform="translate(117.166 422) scale(0.042 -0.042)" d="M255 -13C391 -13 470 49 470 150C470 225 426 272 319 296L219 318C158 331 139 354 139 387C139 433 178 455 243 455C316 455 355 426 365 366L456 366C443 477 363 528 246 528C119 528 54 469 54 379C54 306 97 260 197 239L301 217C355 206 382 183 382 142C382 93 343 61 259 61C180 61 137 91 128 163L40 163C52 45 125 -13 255 -13Z"/><path fill="#ffffff" transform="translate(138.376 422) scale(0.042 -0.042)" d=""/><path fill="#ffffff" transform="translate(149.716 422) scale(0.042 -0.042)" d="M255 -13C391 -13 470 49 470 150C470 225 426 272 319 296L219 318C158 331 139 354 139 387C139 433 178 455 243 455C316 455 355 426 365 366L456 366C443 477 363 528 246 528C119 528 54 469 54 379C54 306 97 260 197 239L301 217C355 206 382 183 382 142C382 93 343 61 259 61C180 61 137 91 128 163L40 163C52 45 125 -13 255 -13Z"/><path fill="#ffffff" transform="translate(170.92600000000002 422) scale(0.042 -0.042)" d="M529 270C529 431 438 528 293 528C139 528 50 418 50 260C50 101 141 -12 295 -12C408 -12 493 49 525 156L441 166C418 101 374 63 298 63C205 63 145 120 142 236L529 236ZM294 453C378 453 431 400 443 302L143 302C152 403 212 453 294 453Z"/><path fill="#ffffff" transform="translate(195.24400000000003 422) scale(0.042 -0.042)" d="M334 530C253 530 199 484 166 412L166 516L80 516L80 0L172 0L172 282C176 387 252 440 320 440C332 440 342 440 353 439L353 529C347 530 341 530 334 530Z"/><path fill="#ffffff" transform="translate(211.12000000000003 422) scale(0.042 -0.042)" d="M410 516L312 218L270 79L227 218L124 516L25 516L223 0L314 0L503 516Z"/><path fill="#ffffff" transform="translate(233.29600000000005 422) scale(0.042 -0.042)" d="M80 613L172 613L172 712L80 712ZM80 0L172 0L172 516L80 516Z"/><path fill="#ffffff" transform="translate(243.88000000000005 422) scale(0.042 -0.042)" d="M289 -13C419 -13 494 59 512 180L426 180C412 107 370 64 294 64C196 64 142 136 142 258C142 380 191 452 295 452C367 452 411 417 425 347L512 347C494 466 413 529 294 529C145 529 50 428 50 254C50 80 145 -13 289 -13Z"/><path fill="#ffffff" transform="translate(267.27400000000006 422) scale(0.042 -0.042)" d="M80 613L172 613L172 712L80 712ZM80 0L172 0L172 516L80 516Z"/><path fill="#ffffff" transform="translate(277.85800000000006 422) scale(0.042 -0.042)" d="M298 -13C443 -13 547 100 547 262C547 426 445 529 301 529C153 529 50 424 50 258C50 96 150 -13 298 -13ZM298 64C201 64 142 141 142 258C142 375 200 452 298 452C398 452 455 379 455 262C455 145 398 64 298 64Z"/><path fill="#ffffff" transform="translate(302.9320000000001 422) scale(0.042 -0.042)" d="M255 -13C391 -13 470 49 470 150C470 225 426 272 319 296L219 318C158 331 139 354 139 387C139 433 178 455 243 455C316 455 355 426 365 366L456 366C443 477 363 528 246 528C119 528 54 469 54 379C54 306 97 260 197 239L301 217C355 206 382 183 382 142C382 93 343 61 259 61C180 61 137 91 128 163L40 163C52 45 125 -13 255 -13Z"/><path fill="#ffffff" transform="translate(324.14200000000005 422) scale(0.042 -0.042)" d=""/><path fill="#ffffff" transform="translate(335.482 422) scale(0.042 -0.042)" d="M329 527C253 527 190 490 160 433L160 516L80 516L80 -204L172 -204L172 63C205 19 259 -11 325 -11C465 -11 551 110 551 270C551 426 460 527 329 527ZM316 68C230 68 167 142 167 264C167 386 230 448 316 448C405 448 459 388 459 270C459 150 405 68 316 68Z"/><path fill="#ffffff" transform="translate(360.72400000000005 422) scale(0.042 -0.042)" d="M447 736L321 736L233 581L314 581ZM422 516L422 229C422 106 346 67 275 67C205 67 172 105 172 176L172 516L80 516L80 158C80 49 147 -13 255 -13C331 -13 393 18 428 73L428 0L514 0L514 516Z"/><path fill="#ffffff" transform="translate(385.672 422) scale(0.042 -0.042)" d="M329 527C262 527 205 499 172 453L172 712L80 712L80 0L160 0L160 81C190 27 251 -11 325 -11C465 -11 551 110 551 270C551 426 460 527 329 527ZM316 68C230 68 167 142 167 264C167 386 230 448 316 448C405 448 459 388 459 270C459 150 405 68 316 68Z"/><path fill="#ffffff" transform="translate(410.91400000000004 422) scale(0.042 -0.042)" d="M80 0L172 0L172 712L80 712Z"/><path fill="#ffffff" transform="translate(421.49800000000005 422) scale(0.042 -0.042)" d="M80 613L172 613L172 712L80 712ZM80 0L172 0L172 516L80 516Z"/><path fill="#ffffff" transform="translate(432.08200000000005 422) scale(0.042 -0.042)" d="M289 -13C419 -13 494 59 512 180L426 180C412 107 370 64 294 64C196 64 142 136 142 258C142 380 191 452 295 452C367 452 411 417 425 347L512 347C494 466 413 529 294 529C145 529 50 428 50 254C50 80 145 -13 289 -13Z"/><path fill="#ffffff" transform="translate(455.47600000000006 422) scale(0.042 -0.042)" d="M298 -13C443 -13 547 100 547 262C547 426 445 529 301 529C153 529 50 424 50 258C50 96 150 -13 298 -13ZM298 64C201 64 142 141 142 258C142 375 200 452 298 452C398 452 455 379 455 262C455 145 398 64 298 64Z"/><path fill="#ffffff" transform="translate(480.55000000000007 422) scale(0.042 -0.042)" d="M255 -13C391 -13 470 49 470 150C470 225 426 272 319 296L219 318C158 331 139 354 139 387C139 433 178 455 243 455C316 455 355 426 365 366L456 366C443 477 363 528 246 528C119 528 54 469 54 379C54 306 97 260 197 239L301 217C355 206 382 183 382 142C382 93 343 61 259 61C180 61 137 91 128 163L40 163C52 45 125 -13 255 -13Z"/><path fill="#ffffff" transform="translate(501.76000000000005 422) scale(0.042 -0.042)" d="M96 -143L106 -143C172 -143 205 -107 205 -35L205 100L95 100L95 0L153 5L153 -46C153 -77 137 -93 106 -93L96 -93Z"/>
<path fill="#ffffff" transform="translate(70 474) scale(0.042 -0.042)" d="M628 529C553 529 498 499 464 439C441 498 391 529 321 529C249 529 198 497 164 440L168 516L80 516L80 0L172 0L172 275C172 408 238 449 298 449C355 449 387 413 387 353L387 0L479 0L479 280C479 413 545 449 605 449C662 449 694 413 694 353L694 0L786 0L786 354C786 474 729 529 628 529Z"/><path fill="#ffffff" transform="translate(106.372 474) scale(0.042 -0.042)" d="M438 736L312 736L224 581L305 581ZM535 68C501 68 490 79 490 113L490 367C490 480 416 532 288 532C155 532 82 478 73 364L164 364C170 433 207 456 281 456C361 456 397 430 397 376L397 354C397 330 385 318 360 315L228 298C103 282 52 222 52 137C52 42 120 -13 225 -13C313 -13 379 26 412 76C416 25 446 0 501 0L550 0L550 68ZM242 58C182 58 143 88 143 141C143 187 171 219 243 230L397 253L397 181C397 115 325 58 242 58Z"/><path fill="#ffffff" transform="translate(130.312 474) scale(0.042 -0.042)" d="M255 -13C391 -13 470 49 470 150C470 225 426 272 319 296L219 318C158 331 139 354 139 387C139 433 178 455 243 455C316 455 355 426 365 366L456 366C443 477 363 528 246 528C119 528 54 469 54 379C54 306 97 260 197 239L301 217C355 206 382 183 382 142C382 93 343 61 259 61C180 61 137 91 128 163L40 163C52 45 125 -13 255 -13Z"/><path fill="#ffffff" transform="translate(151.52200000000002 474) scale(0.042 -0.042)" d=""/><path fill="#ffffff" transform="translate(162.86200000000002 474) scale(0.042 -0.042)" d="M289 -13C419 -13 494 59 512 180L426 180C412 107 370 64 294 64C196 64 142 136 142 258C142 380 191 452 295 452C367 452 411 417 425 347L512 347C494 466 413 529 294 529C145 529 50 428 50 254C50 80 145 -13 289 -13Z"/><path fill="#ffffff" transform="translate(186.25600000000003 474) scale(0.042 -0.042)" d="M529 270C529 431 438 528 293 528C139 528 50 418 50 260C50 101 141 -12 295 -12C408 -12 493 49 525 156L441 166C418 101 374 63 298 63C205 63 145 120 142 236L529 236ZM294 453C378 453 431 400 443 302L143 302C152 403 212 453 294 453Z"/><path fill="#ffffff" transform="translate(210.57400000000004 474) scale(0.042 -0.042)" d="M334 530C253 530 199 484 166 412L166 516L80 516L80 0L172 0L172 282C176 387 252 440 320 440C332 440 342 440 353 439L353 529C347 530 341 530 334 530Z"/><path fill="#ffffff" transform="translate(226.03000000000003 474) scale(0.042 -0.042)" d="M289 -13C419 -13 494 59 512 180L426 180C412 107 370 64 294 64C196 64 142 136 142 258C142 380 191 452 295 452C367 452 411 417 425 347L512 347C494 466 413 529 294 529C145 529 50 428 50 254C50 80 145 -13 289 -13Z"/><path fill="#ffffff" transform="translate(249.42400000000004 474) scale(0.042 -0.042)" d="M535 68C501 68 490 79 490 113L490 367C490 480 416 532 288 532C155 532 82 478 73 364L164 364C170 433 207 456 281 456C361 456 397 430 397 376L397 354C397 330 385 318 360 315L228 298C103 282 52 222 52 137C52 42 120 -13 225 -13C313 -13 379 26 412 76C416 25 446 0 501 0L550 0L550 68ZM242 58C182 58 143 88 143 141C143 187 171 219 243 230L397 253L397 181C397 115 325 58 242 58Z"/><path fill="#ffffff" transform="translate(273.36400000000003 474) scale(0.042 -0.042)" d="M85 0L198 0L198 101L85 101Z"/>
<g transform="translate(880 188) scale(3.35)" opacity="0.12"><rect width="64" height="64" rx="16" fill="none"/>
<path d="M20 14h24a6 6 0 0 1 6 6v18a6 6 0 0 1-6 6H30l-10 8v-8a6 6 0 0 1-6-6V20a6 6 0 0 1 6-6Z" fill="white"/>
<rect x="22" y="21" width="20" height="4" rx="1" fill="#c82632"/>
<rect x="22" y="25" width="20" height="7" fill="#f2c800"/>
<rect x="22" y="32" width="20" height="4" rx="1" fill="#c82632"/></g>
<path d="M70 536H1130" stroke="#ffffff" stroke-opacity="0.18"/>
<path fill="#bfcee3" transform="translate(70 580) scale(0.023 -0.023)" d="M722 381L414 381L414 300L630 300L630 261C605 142 527 67 403 67C249 67 159 183 159 355C159 534 249 645 412 645C513 645 598 602 619 500L709 506C686 644 569 728 407 728C191 728 64 580 64 358C64 125 206 -16 401 -16C506 -16 584 25 633 96L654 0L722 0Z"/><path fill="#bfcee3" transform="translate(88.561 580) scale(0.023 -0.023)" d="M422 516L422 229C422 106 346 67 275 67C205 67 172 105 172 176L172 516L80 516L80 158C80 49 147 -13 255 -13C331 -13 393 18 428 73L428 0L514 0L514 516Z"/><path fill="#bfcee3" transform="translate(102.22300000000001 580) scale(0.023 -0.023)" d="M62 581L143 581L276 736L150 736ZM80 0L172 0L172 516L80 516Z"/><path fill="#bfcee3" transform="translate(108.01900000000002 580) scale(0.023 -0.023)" d="M535 68C501 68 490 79 490 113L490 367C490 480 416 532 288 532C155 532 82 478 73 364L164 364C170 433 207 456 281 456C361 456 397 430 397 376L397 354C397 330 385 318 360 315L228 298C103 282 52 222 52 137C52 42 120 -13 225 -13C313 -13 379 26 412 76C416 25 446 0 501 0L550 0L550 68ZM242 58C182 58 143 88 143 141C143 187 171 219 243 230L397 253L397 181C397 115 325 58 242 58Z"/><path fill="#bfcee3" transform="translate(121.12900000000002 580) scale(0.023 -0.023)" d="M255 -13C391 -13 470 49 470 150C470 225 426 272 319 296L219 318C158 331 139 354 139 387C139 433 178 455 243 455C316 455 355 426 365 366L456 366C443 477 363 528 246 528C119 528 54 469 54 379C54 306 97 260 197 239L301 217C355 206 382 183 382 142C382 93 343 61 259 61C180 61 137 91 128 163L40 163C52 45 125 -13 255 -13Z"/><path fill="#bfcee3" transform="translate(132.74400000000003 580) scale(0.023 -0.023)" d=""/><path fill="#bfcee3" transform="translate(138.95400000000004 580) scale(0.023 -0.023)" d="M289 -13C419 -13 494 59 512 180L426 180C412 107 370 64 294 64C196 64 142 136 142 258C142 380 191 452 295 452C367 452 411 417 425 347L512 347C494 466 413 529 294 529C145 529 50 428 50 254C50 80 145 -13 289 -13Z"/><path fill="#bfcee3" transform="translate(151.76500000000004 580) scale(0.023 -0.023)" d="M80 0L172 0L172 712L80 712Z"/><path fill="#bfcee3" transform="translate(157.56100000000004 580) scale(0.023 -0.023)" d="M535 68C501 68 490 79 490 113L490 367C490 480 416 532 288 532C155 532 82 478 73 364L164 364C170 433 207 456 281 456C361 456 397 430 397 376L397 354C397 330 385 318 360 315L228 298C103 282 52 222 52 137C52 42 120 -13 225 -13C313 -13 379 26 412 76C416 25 446 0 501 0L550 0L550 68ZM242 58C182 58 143 88 143 141C143 187 171 219 243 230L397 253L397 181C397 115 325 58 242 58Z"/><path fill="#bfcee3" transform="translate(170.67100000000005 580) scale(0.023 -0.023)" d="M334 530C253 530 199 484 166 412L166 516L80 516L80 0L172 0L172 282C176 387 252 440 320 440C332 440 342 440 353 439L353 529C347 530 341 530 334 530Z"/><path fill="#bfcee3" transform="translate(179.02000000000004 580) scale(0.023 -0.023)" d="M535 68C501 68 490 79 490 113L490 367C490 480 416 532 288 532C155 532 82 478 73 364L164 364C170 433 207 456 281 456C361 456 397 430 397 376L397 354C397 330 385 318 360 315L228 298C103 282 52 222 52 137C52 42 120 -13 225 -13C313 -13 379 26 412 76C416 25 446 0 501 0L550 0L550 68ZM242 58C182 58 143 88 143 141C143 187 171 219 243 230L397 253L397 181C397 115 325 58 242 58Z"/><path fill="#bfcee3" transform="translate(192.13000000000005 580) scale(0.023 -0.023)" d="M255 -13C391 -13 470 49 470 150C470 225 426 272 319 296L219 318C158 331 139 354 139 387C139 433 178 455 243 455C316 455 355 426 365 366L456 366C443 477 363 528 246 528C119 528 54 469 54 379C54 306 97 260 197 239L301 217C355 206 382 183 382 142C382 93 343 61 259 61C180 61 137 91 128 163L40 163C52 45 125 -13 255 -13Z"/><path fill="#bfcee3" transform="translate(203.74500000000006 580) scale(0.023 -0.023)" d="M85 0L198 0L198 101L85 101Z"/><path fill="#bfcee3" transform="translate(210.25400000000005 580) scale(0.023 -0.023)" d=""/><path fill="#bfcee3" transform="translate(216.46400000000006 580) scale(0.023 -0.023)" d="M572 631L572 712L85 712L85 0L178 0L178 326L504 326L504 407L178 407L178 631Z"/><path fill="#bfcee3" transform="translate(229.50500000000005 580) scale(0.023 -0.023)" d="M422 516L422 229C422 106 346 67 275 67C205 67 172 105 172 176L172 516L80 516L80 158C80 49 147 -13 255 -13C331 -13 393 18 428 73L428 0L514 0L514 516Z"/><path fill="#bfcee3" transform="translate(243.16700000000006 580) scale(0.023 -0.023)" d="M529 270C529 431 438 528 293 528C139 528 50 418 50 260C50 101 141 -12 295 -12C408 -12 493 49 525 156L441 166C418 101 374 63 298 63C205 63 145 120 142 236L529 236ZM294 453C378 453 431 400 443 302L143 302C152 403 212 453 294 453Z"/><path fill="#bfcee3" transform="translate(256.48400000000004 580) scale(0.023 -0.023)" d="M339 529C263 529 201 498 166 443L166 516L80 516L80 0L172 0L172 287C172 410 248 449 319 449C389 449 422 411 422 340L422 0L514 0L514 358C514 467 447 529 339 529Z"/><path fill="#bfcee3" transform="translate(270.146 580) scale(0.023 -0.023)" d="M209 449L327 445L327 516L209 512L209 674L117 674L117 513L40 516L40 445L117 449L117 115C117 35 152 0 232 0L326 0L326 77L259 77C221 77 209 89 209 127Z"/><path fill="#bfcee3" transform="translate(278.357 580) scale(0.023 -0.023)" d="M529 270C529 431 438 528 293 528C139 528 50 418 50 260C50 101 141 -12 295 -12C408 -12 493 49 525 156L441 166C418 101 374 63 298 63C205 63 145 120 142 236L529 236ZM294 453C378 453 431 400 443 302L143 302C152 403 212 453 294 453Z"/><path fill="#bfcee3" transform="translate(291.67400000000004 580) scale(0.023 -0.023)" d="M255 -13C391 -13 470 49 470 150C470 225 426 272 319 296L219 318C158 331 139 354 139 387C139 433 178 455 243 455C316 455 355 426 365 366L456 366C443 477 363 528 246 528C119 528 54 469 54 379C54 306 97 260 197 239L301 217C355 206 382 183 382 142C382 93 343 61 259 61C180 61 137 91 128 163L40 163C52 45 125 -13 255 -13Z"/><path fill="#bfcee3" transform="translate(303.28900000000004 580) scale(0.023 -0.023)" d=""/><path fill="#bfcee3" transform="translate(309.499 580) scale(0.023 -0.023)" d="M298 -13C443 -13 547 100 547 262C547 426 445 529 301 529C153 529 50 424 50 258C50 96 150 -13 298 -13ZM298 64C201 64 142 141 142 258C142 375 200 452 298 452C398 452 455 379 455 262C455 145 398 64 298 64Z"/><path fill="#bfcee3" transform="translate(323.23 580) scale(0.023 -0.023)" d="M123 557L123 513L40 516L40 445L123 449L123 0L215 0L215 449L333 445L333 516L215 512L215 570C215 619 231 635 280 635L333 635L333 712L278 712C170 712 123 665 123 557ZM438 712L438 613L530 613L530 712ZM438 0L530 0L530 516L438 516Z"/><path fill="#bfcee3" transform="translate(337.26 580) scale(0.023 -0.023)" d="M289 -13C419 -13 494 59 512 180L426 180C412 107 370 64 294 64C196 64 142 136 142 258C142 380 191 452 295 452C367 452 411 417 425 347L512 347C494 466 413 529 294 529C145 529 50 428 50 254C50 80 145 -13 289 -13Z"/><path fill="#bfcee3" transform="translate(350.07099999999997 580) scale(0.023 -0.023)" d="M80 613L172 613L172 712L80 712ZM80 0L172 0L172 516L80 516Z"/><path fill="#bfcee3" transform="translate(355.86699999999996 580) scale(0.023 -0.023)" d="M535 68C501 68 490 79 490 113L490 367C490 480 416 532 288 532C155 532 82 478 73 364L164 364C170 433 207 456 281 456C361 456 397 430 397 376L397 354C397 330 385 318 360 315L228 298C103 282 52 222 52 137C52 42 120 -13 225 -13C313 -13 379 26 412 76C416 25 446 0 501 0L550 0L550 68ZM242 58C182 58 143 88 143 141C143 187 171 219 243 230L397 253L397 181C397 115 325 58 242 58Z"/><path fill="#bfcee3" transform="translate(368.977 580) scale(0.023 -0.023)" d="M80 0L172 0L172 712L80 712Z"/><path fill="#bfcee3" transform="translate(374.77299999999997 580) scale(0.023 -0.023)" d="M529 270C529 431 438 528 293 528C139 528 50 418 50 260C50 101 141 -12 295 -12C408 -12 493 49 525 156L441 166C418 101 374 63 298 63C205 63 145 120 142 236L529 236ZM294 453C378 453 431 400 443 302L143 302C152 403 212 453 294 453Z"/><path fill="#bfcee3" transform="translate(388.09 580) scale(0.023 -0.023)" d="M255 -13C391 -13 470 49 470 150C470 225 426 272 319 296L219 318C158 331 139 354 139 387C139 433 178 455 243 455C316 455 355 426 365 366L456 366C443 477 363 528 246 528C119 528 54 469 54 379C54 306 97 260 197 239L301 217C355 206 382 183 382 142C382 93 343 61 259 61C180 61 137 91 128 163L40 163C52 45 125 -13 255 -13Z"/><path fill="#bfcee3" transform="translate(399.705 580) scale(0.023 -0.023)" d="M85 0L198 0L198 101L85 101Z"/>
</svg>